<mxfile host="app.diagrams.net" modified="2023-10-26T10:31:03.945Z" agent="Mozilla/5.0 (Windows NT 10.0; Win64; x64) AppleWebKit/537.36 (KHTML, like Gecko) Chrome/117.0.0.0 Safari/537.36" etag="p5sOAIW4ImWYAyz3KkI3" version="22.0.8" type="device">
  <diagram name="第 1 页" id="AVD6z0hVR131wo2ENQGr">
    <mxGraphModel dx="1863" dy="1083" grid="1" gridSize="10" guides="1" tooltips="1" connect="1" arrows="1" fold="1" page="1" pageScale="1" pageWidth="1169" pageHeight="827" math="0" shadow="0">
      <root>
        <mxCell id="0" />
        <mxCell id="1" parent="0" />
        <mxCell id="nQJphaKpAgBSZ4USIkuY-6" style="edgeStyle=orthogonalEdgeStyle;rounded=0;orthogonalLoop=1;jettySize=auto;html=1;endArrow=open;endFill=0;" parent="1" source="nQJphaKpAgBSZ4USIkuY-2" target="nQJphaKpAgBSZ4USIkuY-4" edge="1">
          <mxGeometry relative="1" as="geometry" />
        </mxCell>
        <mxCell id="nQJphaKpAgBSZ4USIkuY-2" value="&lt;b&gt;图片服务（FastAPI进程）&lt;/b&gt;&lt;br&gt;&lt;b&gt;POST&lt;/b&gt;: /Image2text&lt;br&gt;&lt;b&gt;GET&lt;/b&gt;: /Image2text" style="rounded=0;whiteSpace=wrap;html=1;" parent="1" vertex="1">
          <mxGeometry x="50" y="685" width="160" height="80" as="geometry" />
        </mxCell>
        <mxCell id="nQJphaKpAgBSZ4USIkuY-3" value="&lt;b&gt;OPENAI调用&lt;/b&gt;&lt;br&gt;调用OPENAI&lt;br&gt;（后面会被替换）" style="rounded=0;whiteSpace=wrap;html=1;" parent="1" vertex="1">
          <mxGeometry x="450" y="685" width="120" height="80" as="geometry" />
        </mxCell>
        <mxCell id="nQJphaKpAgBSZ4USIkuY-7" style="edgeStyle=orthogonalEdgeStyle;rounded=0;orthogonalLoop=1;jettySize=auto;html=1;entryX=0;entryY=0.5;entryDx=0;entryDy=0;endArrow=open;endFill=0;" parent="1" source="nQJphaKpAgBSZ4USIkuY-4" target="nQJphaKpAgBSZ4USIkuY-3" edge="1">
          <mxGeometry relative="1" as="geometry" />
        </mxCell>
        <mxCell id="nQJphaKpAgBSZ4USIkuY-4" value="&lt;b&gt;识别进程（Worker进程）&lt;/b&gt;&lt;br&gt;1.识别OCR（paddleOCR）&lt;br&gt;2.识别公式（找模型）&lt;br&gt;3.面积处理&lt;br&gt;4.颜色处理&lt;br&gt;5.聚类处理（HDBSCAN）&lt;br&gt;6.正则表达式匹配（url提取）&lt;br&gt;7.调用AIG生成描述和摘要&lt;br&gt;8.任务结果回写" style="rounded=0;whiteSpace=wrap;html=1;" parent="1" vertex="1">
          <mxGeometry x="250" y="645" width="160" height="160" as="geometry" />
        </mxCell>
        <mxCell id="nQJphaKpAgBSZ4USIkuY-5" value="图片&lt;br&gt;视频标题名&lt;br&gt;上下文字幕" style="endArrow=open;html=1;rounded=0;endFill=0;" parent="1" target="nQJphaKpAgBSZ4USIkuY-11" edge="1">
          <mxGeometry x="-0.0626" y="30" width="50" height="50" relative="1" as="geometry">
            <mxPoint x="69.5" y="100" as="sourcePoint" />
            <mxPoint x="500" y="-100" as="targetPoint" />
            <mxPoint as="offset" />
          </mxGeometry>
        </mxCell>
        <mxCell id="nQJphaKpAgBSZ4USIkuY-8" value=":前端或业务后" style="shape=umlLifeline;perimeter=lifelinePerimeter;whiteSpace=wrap;html=1;container=1;dropTarget=0;collapsible=0;recursiveResize=0;outlineConnect=0;portConstraint=eastwest;newEdgeStyle={&quot;curved&quot;:0,&quot;rounded&quot;:0};" parent="1" vertex="1">
          <mxGeometry x="10" y="10" width="120" height="300" as="geometry" />
        </mxCell>
        <mxCell id="nQJphaKpAgBSZ4USIkuY-9" value=":图片识别（FastAPI进程）" style="shape=umlLifeline;perimeter=lifelinePerimeter;whiteSpace=wrap;html=1;container=1;dropTarget=0;collapsible=0;recursiveResize=0;outlineConnect=0;portConstraint=eastwest;newEdgeStyle={&quot;curved&quot;:0,&quot;rounded&quot;:0};" parent="1" vertex="1">
          <mxGeometry x="210" y="10" width="160" height="300" as="geometry" />
        </mxCell>
        <mxCell id="nQJphaKpAgBSZ4USIkuY-11" value="" style="html=1;points=[[0,0,0,0,5],[0,1,0,0,-5],[1,0,0,0,5],[1,1,0,0,-5]];perimeter=orthogonalPerimeter;outlineConnect=0;targetShapes=umlLifeline;portConstraint=eastwest;newEdgeStyle={&quot;curved&quot;:0,&quot;rounded&quot;:0};" parent="nQJphaKpAgBSZ4USIkuY-9" vertex="1">
          <mxGeometry x="75" y="90" width="10" height="50" as="geometry" />
        </mxCell>
        <mxCell id="nQJphaKpAgBSZ4USIkuY-19" value="" style="html=1;points=[[0,0,0,0,5],[0,1,0,0,-5],[1,0,0,0,5],[1,1,0,0,-5]];perimeter=orthogonalPerimeter;outlineConnect=0;targetShapes=umlLifeline;portConstraint=eastwest;newEdgeStyle={&quot;curved&quot;:0,&quot;rounded&quot;:0};" parent="nQJphaKpAgBSZ4USIkuY-9" vertex="1">
          <mxGeometry x="75" y="200" width="10" height="40" as="geometry" />
        </mxCell>
        <mxCell id="nQJphaKpAgBSZ4USIkuY-10" value=":OCR（Worker进程）" style="shape=umlLifeline;perimeter=lifelinePerimeter;whiteSpace=wrap;html=1;container=1;dropTarget=0;collapsible=0;recursiveResize=0;outlineConnect=0;portConstraint=eastwest;newEdgeStyle={&quot;curved&quot;:0,&quot;rounded&quot;:0};" parent="1" vertex="1">
          <mxGeometry x="450" y="10" width="160" height="300" as="geometry" />
        </mxCell>
        <mxCell id="nQJphaKpAgBSZ4USIkuY-12" value="" style="html=1;points=[[0,0,0,0,5],[0,1,0,0,-5],[1,0,0,0,5],[1,1,0,0,-5]];perimeter=orthogonalPerimeter;outlineConnect=0;targetShapes=umlLifeline;portConstraint=eastwest;newEdgeStyle={&quot;curved&quot;:0,&quot;rounded&quot;:0};" parent="nQJphaKpAgBSZ4USIkuY-10" vertex="1">
          <mxGeometry x="75" y="100" width="10" height="140" as="geometry" />
        </mxCell>
        <mxCell id="nQJphaKpAgBSZ4USIkuY-13" value="图片&lt;br&gt;视频标题名&lt;br&gt;上下文字幕&lt;br&gt;taskid" style="endArrow=open;html=1;rounded=0;endFill=0;" parent="1" edge="1">
          <mxGeometry width="50" height="50" relative="1" as="geometry">
            <mxPoint x="295" y="110" as="sourcePoint" />
            <mxPoint x="525" y="110" as="targetPoint" />
            <mxPoint as="offset" />
          </mxGeometry>
        </mxCell>
        <mxCell id="nQJphaKpAgBSZ4USIkuY-14" value="返回taskid" style="html=1;verticalAlign=bottom;endArrow=open;dashed=1;endSize=8;curved=0;rounded=0;" parent="1" edge="1">
          <mxGeometry relative="1" as="geometry">
            <mxPoint x="285" y="147" as="sourcePoint" />
            <mxPoint x="69.5" y="147" as="targetPoint" />
          </mxGeometry>
        </mxCell>
        <mxCell id="nQJphaKpAgBSZ4USIkuY-15" value=":LLM（FastAPI）" style="shape=umlLifeline;perimeter=lifelinePerimeter;whiteSpace=wrap;html=1;container=1;dropTarget=0;collapsible=0;recursiveResize=0;outlineConnect=0;portConstraint=eastwest;newEdgeStyle={&quot;curved&quot;:0,&quot;rounded&quot;:0};" parent="1" vertex="1">
          <mxGeometry x="890" y="10" width="120" height="300" as="geometry" />
        </mxCell>
        <mxCell id="nQJphaKpAgBSZ4USIkuY-16" value="" style="html=1;points=[[0,0,0,0,5],[0,1,0,0,-5],[1,0,0,0,5],[1,1,0,0,-5]];perimeter=orthogonalPerimeter;outlineConnect=0;targetShapes=umlLifeline;portConstraint=eastwest;newEdgeStyle={&quot;curved&quot;:0,&quot;rounded&quot;:0};" parent="nQJphaKpAgBSZ4USIkuY-15" vertex="1">
          <mxGeometry x="55" y="128" width="10" height="80" as="geometry" />
        </mxCell>
        <mxCell id="nQJphaKpAgBSZ4USIkuY-17" value="视频标题名&lt;br&gt;上下文字幕&lt;br&gt;提取信息" style="endArrow=open;html=1;rounded=0;endFill=0;" parent="1" target="nQJphaKpAgBSZ4USIkuY-16" edge="1">
          <mxGeometry x="0.4234" y="3" width="50" height="50" relative="1" as="geometry">
            <mxPoint x="535" y="163" as="sourcePoint" />
            <mxPoint x="745" y="163" as="targetPoint" />
            <mxPoint as="offset" />
          </mxGeometry>
        </mxCell>
        <mxCell id="nQJphaKpAgBSZ4USIkuY-18" value="返回描述和摘要" style="html=1;verticalAlign=bottom;endArrow=open;dashed=1;endSize=8;curved=0;rounded=0;" parent="1" edge="1" source="nQJphaKpAgBSZ4USIkuY-16">
          <mxGeometry x="-0.439" relative="1" as="geometry">
            <mxPoint x="745" y="205" as="sourcePoint" />
            <mxPoint x="535" y="205" as="targetPoint" />
            <mxPoint as="offset" />
          </mxGeometry>
        </mxCell>
        <mxCell id="nQJphaKpAgBSZ4USIkuY-20" value="taskid&lt;br&gt;描述（30字）&lt;br&gt;摘要（60字）&lt;br&gt;涉及（概念、人名、地名、组织、时间）&lt;br&gt;" style="endArrow=open;html=1;rounded=0;endFill=0;entryX=1;entryY=0;entryDx=0;entryDy=5;entryPerimeter=0;labelBackgroundColor=none;" parent="1" source="nQJphaKpAgBSZ4USIkuY-12" target="nQJphaKpAgBSZ4USIkuY-19" edge="1">
          <mxGeometry y="-35" width="50" height="50" relative="1" as="geometry">
            <mxPoint x="385" y="200" as="sourcePoint" />
            <mxPoint x="615" y="200" as="targetPoint" />
            <mxPoint as="offset" />
          </mxGeometry>
        </mxCell>
        <mxCell id="nQJphaKpAgBSZ4USIkuY-21" value="写入成功与否" style="html=1;verticalAlign=bottom;endArrow=open;dashed=1;endSize=8;curved=0;rounded=0;entryX=0;entryY=1;entryDx=0;entryDy=-5;entryPerimeter=0;" parent="1" source="nQJphaKpAgBSZ4USIkuY-19" target="nQJphaKpAgBSZ4USIkuY-12" edge="1">
          <mxGeometry relative="1" as="geometry">
            <mxPoint x="375" y="237" as="sourcePoint" />
            <mxPoint x="159.5" y="237" as="targetPoint" />
          </mxGeometry>
        </mxCell>
        <mxCell id="vgfMsCbYHIfPS9LNUYp5-1" value="&lt;b style=&quot;font-size: 24px;&quot;&gt;图片&amp;nbsp; &amp;nbsp;&amp;nbsp;&lt;br&gt;内容&amp;nbsp; &amp;nbsp;&amp;nbsp;&lt;br&gt;提取&amp;nbsp; &amp;nbsp;&amp;nbsp;&lt;br&gt;&lt;br&gt;&lt;br&gt;&lt;/b&gt;" style="rounded=0;whiteSpace=wrap;html=1;verticalAlign=bottom;fontSize=24;labelPosition=center;verticalLabelPosition=middle;align=right;fillColor=#f5f5f5;fontColor=#333333;strokeColor=#666666;" parent="1" vertex="1">
          <mxGeometry x="660" y="330" width="480" height="430" as="geometry" />
        </mxCell>
        <mxCell id="vgfMsCbYHIfPS9LNUYp5-6" style="edgeStyle=orthogonalEdgeStyle;rounded=0;orthogonalLoop=1;jettySize=auto;html=1;entryX=0;entryY=0.5;entryDx=0;entryDy=0;exitX=1;exitY=0.75;exitDx=0;exitDy=0;" parent="1" source="vgfMsCbYHIfPS9LNUYp5-18" target="ROafBCnEOIi4fDcEe44d-24" edge="1">
          <mxGeometry relative="1" as="geometry">
            <mxPoint x="1190" y="345" as="targetPoint" />
          </mxGeometry>
        </mxCell>
        <mxCell id="vgfMsCbYHIfPS9LNUYp5-9" style="edgeStyle=orthogonalEdgeStyle;rounded=0;orthogonalLoop=1;jettySize=auto;html=1;entryX=0.5;entryY=0;entryDx=0;entryDy=0;" parent="1" source="vgfMsCbYHIfPS9LNUYp5-2" target="vgfMsCbYHIfPS9LNUYp5-10" edge="1">
          <mxGeometry relative="1" as="geometry">
            <mxPoint x="1090" y="415" as="targetPoint" />
          </mxGeometry>
        </mxCell>
        <mxCell id="vgfMsCbYHIfPS9LNUYp5-2" value="OCR" style="rounded=0;whiteSpace=wrap;html=1;fillColor=#d5e8d4;strokeColor=#82b366;" parent="1" vertex="1">
          <mxGeometry x="900" y="345" width="80" height="40" as="geometry" />
        </mxCell>
        <mxCell id="vgfMsCbYHIfPS9LNUYp5-5" style="edgeStyle=orthogonalEdgeStyle;rounded=0;orthogonalLoop=1;jettySize=auto;html=1;exitX=1;exitY=0.5;exitDx=0;exitDy=0;" parent="1" source="vgfMsCbYHIfPS9LNUYp5-2" target="vgfMsCbYHIfPS9LNUYp5-7" edge="1">
          <mxGeometry relative="1" as="geometry">
            <mxPoint x="1480" y="385" as="targetPoint" />
          </mxGeometry>
        </mxCell>
        <mxCell id="vgfMsCbYHIfPS9LNUYp5-3" value="图片" style="shape=note;whiteSpace=wrap;html=1;backgroundOutline=1;darkOpacity=0.05;size=10;" parent="1" vertex="1">
          <mxGeometry x="670" y="535" width="40" height="50" as="geometry" />
        </mxCell>
        <mxCell id="vgfMsCbYHIfPS9LNUYp5-12" style="edgeStyle=orthogonalEdgeStyle;rounded=0;orthogonalLoop=1;jettySize=auto;html=1;entryX=0.5;entryY=0;entryDx=0;entryDy=0;" parent="1" source="vgfMsCbYHIfPS9LNUYp5-10" target="vgfMsCbYHIfPS9LNUYp5-11" edge="1">
          <mxGeometry relative="1" as="geometry" />
        </mxCell>
        <mxCell id="vgfMsCbYHIfPS9LNUYp5-10" value="面积权重" style="rounded=0;whiteSpace=wrap;html=1;" parent="1" vertex="1">
          <mxGeometry x="900" y="415" width="80" height="40" as="geometry" />
        </mxCell>
        <mxCell id="vgfMsCbYHIfPS9LNUYp5-14" style="edgeStyle=orthogonalEdgeStyle;rounded=0;orthogonalLoop=1;jettySize=auto;html=1;entryX=0.5;entryY=0;entryDx=0;entryDy=0;" parent="1" source="vgfMsCbYHIfPS9LNUYp5-11" target="vgfMsCbYHIfPS9LNUYp5-13" edge="1">
          <mxGeometry relative="1" as="geometry" />
        </mxCell>
        <mxCell id="vgfMsCbYHIfPS9LNUYp5-11" value="聚类" style="rounded=0;whiteSpace=wrap;html=1;" parent="1" vertex="1">
          <mxGeometry x="900" y="475" width="80" height="40" as="geometry" />
        </mxCell>
        <mxCell id="ROafBCnEOIi4fDcEe44d-26" style="edgeStyle=orthogonalEdgeStyle;rounded=0;orthogonalLoop=1;jettySize=auto;html=1;" edge="1" parent="1" source="vgfMsCbYHIfPS9LNUYp5-13" target="ROafBCnEOIi4fDcEe44d-25">
          <mxGeometry relative="1" as="geometry" />
        </mxCell>
        <mxCell id="vgfMsCbYHIfPS9LNUYp5-13" value="排版顺序" style="rounded=0;whiteSpace=wrap;html=1;" parent="1" vertex="1">
          <mxGeometry x="900" y="535" width="80" height="40" as="geometry" />
        </mxCell>
        <mxCell id="vgfMsCbYHIfPS9LNUYp5-16" value="处置方式A" style="edgeStyle=orthogonalEdgeStyle;rounded=0;orthogonalLoop=1;jettySize=auto;html=1;entryX=0;entryY=0.5;entryDx=0;entryDy=0;exitX=1;exitY=0.25;exitDx=0;exitDy=0;" parent="1" source="vgfMsCbYHIfPS9LNUYp5-18" target="vgfMsCbYHIfPS9LNUYp5-2" edge="1">
          <mxGeometry relative="1" as="geometry">
            <mxPoint x="610" y="345" as="sourcePoint" />
            <mxPoint x="770" y="345" as="targetPoint" />
          </mxGeometry>
        </mxCell>
        <mxCell id="vgfMsCbYHIfPS9LNUYp5-17" style="edgeStyle=orthogonalEdgeStyle;rounded=0;orthogonalLoop=1;jettySize=auto;html=1;entryX=1;entryY=0.5;entryDx=0;entryDy=0;exitX=0.5;exitY=1;exitDx=0;exitDy=0;" parent="1" source="vgfMsCbYHIfPS9LNUYp5-7" target="vgfMsCbYHIfPS9LNUYp5-11" edge="1">
          <mxGeometry relative="1" as="geometry">
            <mxPoint x="1420" y="455" as="sourcePoint" />
          </mxGeometry>
        </mxCell>
        <mxCell id="vgfMsCbYHIfPS9LNUYp5-7" value="分割" style="rounded=0;whiteSpace=wrap;html=1;fillColor=#d5e8d4;strokeColor=#82b366;" parent="1" vertex="1">
          <mxGeometry x="1020" y="345" width="80" height="40" as="geometry" />
        </mxCell>
        <mxCell id="vgfMsCbYHIfPS9LNUYp5-19" value="" style="edgeStyle=orthogonalEdgeStyle;rounded=0;orthogonalLoop=1;jettySize=auto;html=1;entryX=0;entryY=0.5;entryDx=0;entryDy=0;exitX=0.5;exitY=0;exitDx=0;exitDy=0;exitPerimeter=0;" parent="1" source="vgfMsCbYHIfPS9LNUYp5-3" target="vgfMsCbYHIfPS9LNUYp5-18" edge="1">
          <mxGeometry relative="1" as="geometry">
            <mxPoint x="590" y="500" as="sourcePoint" />
            <mxPoint x="830" y="500" as="targetPoint" />
          </mxGeometry>
        </mxCell>
        <mxCell id="vgfMsCbYHIfPS9LNUYp5-18" value="业务系统" style="rounded=0;whiteSpace=wrap;html=1;fillColor=#dae8fc;strokeColor=#6c8ebf;" parent="1" vertex="1">
          <mxGeometry x="710" y="445" width="80" height="40" as="geometry" />
        </mxCell>
        <mxCell id="vgfMsCbYHIfPS9LNUYp5-20" value="针对Twitter类社交媒体" style="rounded=0;whiteSpace=wrap;html=1;fillColor=#d5e8d4;strokeColor=#82b366;" parent="1" vertex="1">
          <mxGeometry x="900" y="645" width="80" height="40" as="geometry" />
        </mxCell>
        <mxCell id="vgfMsCbYHIfPS9LNUYp5-21" value="处置方式B" style="edgeStyle=orthogonalEdgeStyle;rounded=0;orthogonalLoop=1;jettySize=auto;html=1;entryX=0;entryY=0.5;entryDx=0;entryDy=0;exitX=1;exitY=0.5;exitDx=0;exitDy=0;" parent="1" source="ROafBCnEOIi4fDcEe44d-27" target="vgfMsCbYHIfPS9LNUYp5-20" edge="1">
          <mxGeometry x="-0.1579" relative="1" as="geometry">
            <mxPoint x="430" y="605" as="sourcePoint" />
            <mxPoint x="860" y="355" as="targetPoint" />
            <mxPoint as="offset" />
          </mxGeometry>
        </mxCell>
        <mxCell id="vgfMsCbYHIfPS9LNUYp5-23" value="图片" style="shape=note;whiteSpace=wrap;html=1;backgroundOutline=1;darkOpacity=0.05;size=10;" parent="1" vertex="1">
          <mxGeometry x="800" y="420" width="30" height="30" as="geometry" />
        </mxCell>
        <mxCell id="vgfMsCbYHIfPS9LNUYp5-25" value="针对Chart" style="rounded=0;whiteSpace=wrap;html=1;fillColor=#f5f5f5;fontColor=#333333;strokeColor=#666666;" parent="1" vertex="1">
          <mxGeometry x="900" y="705" width="80" height="40" as="geometry" />
        </mxCell>
        <mxCell id="vgfMsCbYHIfPS9LNUYp5-26" value="处置方式C" style="edgeStyle=orthogonalEdgeStyle;rounded=0;orthogonalLoop=1;jettySize=auto;html=1;entryX=0;entryY=0.5;entryDx=0;entryDy=0;exitX=0.5;exitY=1;exitDx=0;exitDy=0;" parent="1" source="ROafBCnEOIi4fDcEe44d-27" target="vgfMsCbYHIfPS9LNUYp5-25" edge="1">
          <mxGeometry x="0.2667" relative="1" as="geometry">
            <mxPoint x="430" y="645" as="sourcePoint" />
            <mxPoint x="860" y="675" as="targetPoint" />
            <mxPoint as="offset" />
          </mxGeometry>
        </mxCell>
        <mxCell id="vgfMsCbYHIfPS9LNUYp5-27" value="Text" style="text;html=1;strokeColor=none;fillColor=none;align=center;verticalAlign=middle;whiteSpace=wrap;rounded=0;" parent="1" vertex="1">
          <mxGeometry x="1060" y="535" width="60" height="30" as="geometry" />
        </mxCell>
        <mxCell id="vgfMsCbYHIfPS9LNUYp5-28" value="Text" style="text;html=1;strokeColor=none;fillColor=none;align=center;verticalAlign=middle;whiteSpace=wrap;rounded=0;" parent="1" vertex="1">
          <mxGeometry x="1000" y="525" width="60" height="30" as="geometry" />
        </mxCell>
        <mxCell id="vgfMsCbYHIfPS9LNUYp5-29" value="Mask" style="text;html=1;strokeColor=none;fillColor=none;align=center;verticalAlign=middle;whiteSpace=wrap;rounded=0;" parent="1" vertex="1">
          <mxGeometry x="1000" y="465" width="60" height="30" as="geometry" />
        </mxCell>
        <mxCell id="ROafBCnEOIi4fDcEe44d-1" value=":SAM（FastAPI）" style="shape=umlLifeline;perimeter=lifelinePerimeter;whiteSpace=wrap;html=1;container=1;dropTarget=0;collapsible=0;recursiveResize=0;outlineConnect=0;portConstraint=eastwest;newEdgeStyle={&quot;curved&quot;:0,&quot;rounded&quot;:0};" vertex="1" parent="1">
          <mxGeometry x="690" y="10" width="120" height="300" as="geometry" />
        </mxCell>
        <mxCell id="ROafBCnEOIi4fDcEe44d-2" value="" style="html=1;points=[[0,0,0,0,5],[0,1,0,0,-5],[1,0,0,0,5],[1,1,0,0,-5]];perimeter=orthogonalPerimeter;outlineConnect=0;targetShapes=umlLifeline;portConstraint=eastwest;newEdgeStyle={&quot;curved&quot;:0,&quot;rounded&quot;:0};" vertex="1" parent="ROafBCnEOIi4fDcEe44d-1">
          <mxGeometry x="55" y="100" width="10" height="40" as="geometry" />
        </mxCell>
        <mxCell id="ROafBCnEOIi4fDcEe44d-3" value="图片" style="endArrow=open;html=1;rounded=0;endFill=0;" edge="1" parent="1">
          <mxGeometry width="50" height="50" relative="1" as="geometry">
            <mxPoint x="535" y="116" as="sourcePoint" />
            <mxPoint x="745" y="116" as="targetPoint" />
            <mxPoint as="offset" />
          </mxGeometry>
        </mxCell>
        <mxCell id="ROafBCnEOIi4fDcEe44d-4" value="mask" style="html=1;verticalAlign=bottom;endArrow=open;dashed=1;endSize=8;curved=0;rounded=0;" edge="1" parent="1">
          <mxGeometry relative="1" as="geometry">
            <mxPoint x="745" y="146" as="sourcePoint" />
            <mxPoint x="535" y="146" as="targetPoint" />
            <mxPoint as="offset" />
          </mxGeometry>
        </mxCell>
        <mxCell id="ROafBCnEOIi4fDcEe44d-5" value="图片&lt;br&gt;视频标题名&lt;br&gt;上下文字幕" style="endArrow=open;html=1;rounded=0;endFill=0;" edge="1" parent="1" target="ROafBCnEOIi4fDcEe44d-8">
          <mxGeometry x="-0.0626" y="30" width="50" height="50" relative="1" as="geometry">
            <mxPoint x="69.5" y="420" as="sourcePoint" />
            <mxPoint x="500" y="220" as="targetPoint" />
            <mxPoint as="offset" />
          </mxGeometry>
        </mxCell>
        <mxCell id="ROafBCnEOIi4fDcEe44d-6" value=":前端或业务后" style="shape=umlLifeline;perimeter=lifelinePerimeter;whiteSpace=wrap;html=1;container=1;dropTarget=0;collapsible=0;recursiveResize=0;outlineConnect=0;portConstraint=eastwest;newEdgeStyle={&quot;curved&quot;:0,&quot;rounded&quot;:0};" vertex="1" parent="1">
          <mxGeometry x="10" y="330" width="120" height="300" as="geometry" />
        </mxCell>
        <mxCell id="ROafBCnEOIi4fDcEe44d-7" value=":Formula（FastAPI进程）" style="shape=umlLifeline;perimeter=lifelinePerimeter;whiteSpace=wrap;html=1;container=1;dropTarget=0;collapsible=0;recursiveResize=0;outlineConnect=0;portConstraint=eastwest;newEdgeStyle={&quot;curved&quot;:0,&quot;rounded&quot;:0};" vertex="1" parent="1">
          <mxGeometry x="210" y="330" width="160" height="300" as="geometry" />
        </mxCell>
        <mxCell id="ROafBCnEOIi4fDcEe44d-8" value="" style="html=1;points=[[0,0,0,0,5],[0,1,0,0,-5],[1,0,0,0,5],[1,1,0,0,-5]];perimeter=orthogonalPerimeter;outlineConnect=0;targetShapes=umlLifeline;portConstraint=eastwest;newEdgeStyle={&quot;curved&quot;:0,&quot;rounded&quot;:0};" vertex="1" parent="ROafBCnEOIi4fDcEe44d-7">
          <mxGeometry x="75" y="90" width="10" height="50" as="geometry" />
        </mxCell>
        <mxCell id="ROafBCnEOIi4fDcEe44d-9" value="" style="html=1;points=[[0,0,0,0,5],[0,1,0,0,-5],[1,0,0,0,5],[1,1,0,0,-5]];perimeter=orthogonalPerimeter;outlineConnect=0;targetShapes=umlLifeline;portConstraint=eastwest;newEdgeStyle={&quot;curved&quot;:0,&quot;rounded&quot;:0};" vertex="1" parent="ROafBCnEOIi4fDcEe44d-7">
          <mxGeometry x="75" y="200" width="10" height="40" as="geometry" />
        </mxCell>
        <mxCell id="ROafBCnEOIi4fDcEe44d-10" value=":Nougat（Worker进程）" style="shape=umlLifeline;perimeter=lifelinePerimeter;whiteSpace=wrap;html=1;container=1;dropTarget=0;collapsible=0;recursiveResize=0;outlineConnect=0;portConstraint=eastwest;newEdgeStyle={&quot;curved&quot;:0,&quot;rounded&quot;:0};" vertex="1" parent="1">
          <mxGeometry x="450" y="330" width="160" height="300" as="geometry" />
        </mxCell>
        <mxCell id="ROafBCnEOIi4fDcEe44d-11" value="" style="html=1;points=[[0,0,0,0,5],[0,1,0,0,-5],[1,0,0,0,5],[1,1,0,0,-5]];perimeter=orthogonalPerimeter;outlineConnect=0;targetShapes=umlLifeline;portConstraint=eastwest;newEdgeStyle={&quot;curved&quot;:0,&quot;rounded&quot;:0};" vertex="1" parent="ROafBCnEOIi4fDcEe44d-10">
          <mxGeometry x="75" y="100" width="10" height="140" as="geometry" />
        </mxCell>
        <mxCell id="ROafBCnEOIi4fDcEe44d-12" value="图片&lt;br&gt;taskid" style="endArrow=open;html=1;rounded=0;endFill=0;" edge="1" parent="1">
          <mxGeometry width="50" height="50" relative="1" as="geometry">
            <mxPoint x="295" y="430" as="sourcePoint" />
            <mxPoint x="525" y="430" as="targetPoint" />
            <mxPoint as="offset" />
          </mxGeometry>
        </mxCell>
        <mxCell id="ROafBCnEOIi4fDcEe44d-13" value="返回taskid" style="html=1;verticalAlign=bottom;endArrow=open;dashed=1;endSize=8;curved=0;rounded=0;" edge="1" parent="1">
          <mxGeometry relative="1" as="geometry">
            <mxPoint x="285" y="467" as="sourcePoint" />
            <mxPoint x="69.5" y="467" as="targetPoint" />
          </mxGeometry>
        </mxCell>
        <mxCell id="ROafBCnEOIi4fDcEe44d-18" value="taskid&lt;br&gt;公式的Latex" style="endArrow=open;html=1;rounded=0;endFill=0;entryX=1;entryY=0;entryDx=0;entryDy=5;entryPerimeter=0;labelBackgroundColor=none;" edge="1" parent="1" source="ROafBCnEOIi4fDcEe44d-11" target="ROafBCnEOIi4fDcEe44d-9">
          <mxGeometry y="-15" width="50" height="50" relative="1" as="geometry">
            <mxPoint x="305" y="440" as="sourcePoint" />
            <mxPoint x="535" y="440" as="targetPoint" />
            <mxPoint as="offset" />
          </mxGeometry>
        </mxCell>
        <mxCell id="ROafBCnEOIi4fDcEe44d-19" value="写入成功与否" style="html=1;verticalAlign=bottom;endArrow=open;dashed=1;endSize=8;curved=0;rounded=0;entryX=0;entryY=1;entryDx=0;entryDy=-5;entryPerimeter=0;" edge="1" parent="1" source="ROafBCnEOIi4fDcEe44d-9" target="ROafBCnEOIi4fDcEe44d-11">
          <mxGeometry relative="1" as="geometry">
            <mxPoint x="295" y="477" as="sourcePoint" />
            <mxPoint x="79.5" y="477" as="targetPoint" />
          </mxGeometry>
        </mxCell>
        <mxCell id="ROafBCnEOIi4fDcEe44d-24" value="公式" style="rounded=0;whiteSpace=wrap;html=1;fillColor=#d5e8d4;strokeColor=#82b366;" vertex="1" parent="1">
          <mxGeometry x="900" y="585" width="80" height="40" as="geometry" />
        </mxCell>
        <mxCell id="ROafBCnEOIi4fDcEe44d-25" value="OpenAI" style="rounded=0;whiteSpace=wrap;html=1;fillColor=#d5e8d4;strokeColor=#82b366;" vertex="1" parent="1">
          <mxGeometry x="1020" y="535" width="80" height="40" as="geometry" />
        </mxCell>
        <mxCell id="ROafBCnEOIi4fDcEe44d-27" value="图像分类器" style="rounded=0;whiteSpace=wrap;html=1;fillColor=#f5f5f5;fontColor=#333333;strokeColor=#666666;" vertex="1" parent="1">
          <mxGeometry x="710" y="645" width="80" height="40" as="geometry" />
        </mxCell>
        <mxCell id="ROafBCnEOIi4fDcEe44d-28" value="" style="edgeStyle=orthogonalEdgeStyle;rounded=0;orthogonalLoop=1;jettySize=auto;html=1;entryX=0;entryY=0.5;entryDx=0;entryDy=0;exitX=0.5;exitY=1;exitDx=0;exitDy=0;exitPerimeter=0;" edge="1" parent="1" source="vgfMsCbYHIfPS9LNUYp5-3" target="ROafBCnEOIi4fDcEe44d-27">
          <mxGeometry relative="1" as="geometry">
            <mxPoint x="600" y="510" as="sourcePoint" />
            <mxPoint x="640" y="510" as="targetPoint" />
          </mxGeometry>
        </mxCell>
        <mxCell id="ROafBCnEOIi4fDcEe44d-29" value="图片" style="shape=note;whiteSpace=wrap;html=1;backgroundOutline=1;darkOpacity=0.05;size=10;" vertex="1" parent="1">
          <mxGeometry x="800" y="480" width="30" height="30" as="geometry" />
        </mxCell>
      </root>
    </mxGraphModel>
  </diagram>
</mxfile>
